<mxfile><diagram id="NQx3vbhuyei3ZCzYLEsi" name="Page-1"><mxGraphModel dx="2458" dy="1700" grid="1" gridSize="10" guides="1" tooltips="1" connect="1" arrows="1" fold="1" page="0" pageScale="1" pageWidth="850" pageHeight="1100" math="0" shadow="0"><root><mxCell id="0"/><mxCell id="1" parent="0"/><mxCell id="76" value="" style="edgeStyle=none;html=1;endArrow=none;endFill=0;strokeWidth=4;" parent="1" source="74" target="71" edge="1"><mxGeometry relative="1" as="geometry"/></mxCell><mxCell id="28" value="" style="edgeStyle=none;html=1;endArrow=none;endFill=0;strokeWidth=4;" parent="1" source="5" target="27" edge="1"><mxGeometry relative="1" as="geometry"/></mxCell><mxCell id="53" value="" style="edgeStyle=none;html=1;endArrow=none;endFill=0;strokeWidth=2;entryX=0.5;entryY=1;entryDx=0;entryDy=0;" parent="1" source="5" target="52" edge="1"><mxGeometry relative="1" as="geometry"><mxPoint x="410" y="70" as="targetPoint"/></mxGeometry></mxCell><mxCell id="70" value="" style="edgeStyle=none;html=1;endArrow=classic;endFill=1;strokeWidth=4;" parent="1" source="5" target="69" edge="1"><mxGeometry relative="1" as="geometry"/></mxCell><mxCell id="115" value="" style="edgeStyle=none;html=1;fontSize=18;" edge="1" parent="1" source="5" target="114"><mxGeometry relative="1" as="geometry"/></mxCell><mxCell id="5" value="&lt;font style=&quot;font-size: 18px&quot;&gt;Products&lt;/font&gt;" style="whiteSpace=wrap;html=1;rounded=0;" parent="1" vertex="1"><mxGeometry x="60" y="-20" width="120" height="80" as="geometry"/></mxCell><mxCell id="41" value="" style="edgeStyle=none;html=1;endArrow=none;endFill=0;strokeWidth=4;entryX=1;entryY=0;entryDx=0;entryDy=0;" parent="1" source="24" target="5" edge="1"><mxGeometry relative="1" as="geometry"/></mxCell><mxCell id="24" value="&lt;u&gt;ID&lt;/u&gt;" style="ellipse;whiteSpace=wrap;html=1;rounded=0;" parent="1" vertex="1"><mxGeometry x="250" y="-100" width="120" height="60" as="geometry"/></mxCell><mxCell id="27" value="&lt;font style=&quot;font-size: 18px&quot;&gt;&lt;b&gt;name&lt;/b&gt;&lt;/font&gt;" style="ellipse;whiteSpace=wrap;html=1;rounded=0;" parent="1" vertex="1"><mxGeometry x="180" y="-160" width="120" height="60" as="geometry"/></mxCell><mxCell id="52" value="&lt;font style=&quot;font-size: 18px&quot;&gt;price&lt;/font&gt;" style="ellipse;whiteSpace=wrap;html=1;rounded=0;" parent="1" vertex="1"><mxGeometry x="50" y="-190" width="120" height="60" as="geometry"/></mxCell><mxCell id="66" value="&lt;h1&gt;OnlineMerchant Database&lt;/h1&gt;&lt;p&gt;&lt;font style=&quot;font-size: 18px&quot;&gt;Tables of Customer, Products, Cart, Orders,&lt;/font&gt;&lt;/p&gt;&lt;p&gt;&lt;span style=&quot;font-size: medium&quot;&gt;Many-to-Many = Users -- Products, Cart - Product&lt;/span&gt;&lt;/p&gt;&lt;p&gt;&lt;font size=&quot;3&quot;&gt;One-to-Many = Reviews - Products,&amp;nbsp;&lt;/font&gt;&lt;/p&gt;&lt;p&gt;&lt;font size=&quot;3&quot;&gt;One-to-One = Customer - Cart/Order&lt;/font&gt;&lt;/p&gt;&lt;p&gt;&lt;br&gt;&lt;/p&gt;&lt;p&gt;&lt;br&gt;&lt;/p&gt;" style="text;html=1;strokeColor=none;fillColor=none;spacing=5;spacingTop=-20;whiteSpace=wrap;overflow=hidden;rounded=0;" parent="1" vertex="1"><mxGeometry x="50" y="-510" width="520" height="250" as="geometry"/></mxCell><mxCell id="133" value="" style="edgeStyle=none;html=1;fontSize=18;" edge="1" parent="1" source="69" target="71"><mxGeometry relative="1" as="geometry"/></mxCell><mxCell id="69" value="&lt;font style=&quot;font-size: 24px&quot;&gt;adds to&lt;/font&gt;" style="rhombus;whiteSpace=wrap;html=1;rounded=0;" parent="1" vertex="1"><mxGeometry x="330" y="-20" width="100" height="80" as="geometry"/></mxCell><mxCell id="78" value="" style="edgeStyle=none;html=1;endArrow=none;endFill=0;strokeWidth=4;" parent="1" source="71" target="77" edge="1"><mxGeometry relative="1" as="geometry"/></mxCell><mxCell id="98" value="" style="edgeStyle=none;html=1;fontSize=18;" edge="1" parent="1" source="71" target="97"><mxGeometry relative="1" as="geometry"/></mxCell><mxCell id="139" value="" style="edgeStyle=none;html=1;fontSize=18;entryX=1;entryY=0.5;entryDx=0;entryDy=0;" edge="1" parent="1" source="71" target="89"><mxGeometry relative="1" as="geometry"><mxPoint x="590.0000000000005" y="120" as="targetPoint"/></mxGeometry></mxCell><mxCell id="71" value="&lt;span style=&quot;font-size: 18px&quot;&gt;Cart&lt;br&gt;&lt;/span&gt;" style="whiteSpace=wrap;html=1;rounded=0;" parent="1" vertex="1"><mxGeometry x="530" y="-10" width="120" height="60" as="geometry"/></mxCell><mxCell id="74" value="&lt;u&gt;&lt;font style=&quot;font-size: 18px&quot;&gt;ID&lt;/font&gt;&lt;/u&gt;" style="ellipse;whiteSpace=wrap;html=1;rounded=0;" parent="1" vertex="1"><mxGeometry x="730" y="-150" width="120" height="60" as="geometry"/></mxCell><mxCell id="77" value="&lt;u&gt;&lt;font style=&quot;font-size: 14px&quot;&gt;List of Items&lt;/font&gt;&lt;br&gt;&lt;/u&gt;" style="ellipse;whiteSpace=wrap;html=1;rounded=0;" parent="1" vertex="1"><mxGeometry x="530" y="-170" width="120" height="60" as="geometry"/></mxCell><mxCell id="85" style="edgeStyle=none;html=1;exitX=0.5;exitY=1;exitDx=0;exitDy=0;entryX=0.5;entryY=0;entryDx=0;entryDy=0;endArrow=none;endFill=0;strokeWidth=4;" parent="1" source="80" target="82" edge="1"><mxGeometry relative="1" as="geometry"/></mxCell><mxCell id="86" style="edgeStyle=none;html=1;exitX=1;exitY=0.5;exitDx=0;exitDy=0;entryX=0;entryY=0.5;entryDx=0;entryDy=0;endArrow=none;endFill=0;strokeWidth=4;" parent="1" source="80" target="84" edge="1"><mxGeometry relative="1" as="geometry"/></mxCell><mxCell id="87" style="edgeStyle=none;html=1;exitX=0;exitY=0.5;exitDx=0;exitDy=0;entryX=1;entryY=0.5;entryDx=0;entryDy=0;endArrow=none;endFill=0;strokeWidth=4;" parent="1" source="80" target="81" edge="1"><mxGeometry relative="1" as="geometry"/></mxCell><mxCell id="91" style="edgeStyle=none;html=1;exitX=1;exitY=0;exitDx=0;exitDy=0;entryX=0;entryY=1;entryDx=0;entryDy=0;endArrow=none;endFill=0;strokeWidth=4;" parent="1" source="80" target="89" edge="1"><mxGeometry relative="1" as="geometry"/></mxCell><mxCell id="100" value="" style="edgeStyle=none;html=1;fontSize=18;" edge="1" parent="1" source="80" target="99"><mxGeometry relative="1" as="geometry"/></mxCell><mxCell id="111" value="" style="edgeStyle=none;html=1;fontSize=24;" edge="1" parent="1" source="80" target="110"><mxGeometry relative="1" as="geometry"/></mxCell><mxCell id="119" value="" style="edgeStyle=none;html=1;fontSize=18;" edge="1" parent="1" source="80" target="118"><mxGeometry relative="1" as="geometry"/></mxCell><mxCell id="135" value="" style="edgeStyle=none;html=1;fontSize=18;" edge="1" parent="1" source="80" target="134"><mxGeometry relative="1" as="geometry"/></mxCell><mxCell id="80" value="&lt;font style=&quot;font-size: 18px&quot;&gt;Customer&lt;/font&gt;" style="rounded=0;whiteSpace=wrap;html=1;" parent="1" vertex="1"><mxGeometry x="70" y="430" width="120" height="60" as="geometry"/></mxCell><mxCell id="81" value="&lt;font style=&quot;font-size: 18px&quot;&gt;&lt;b&gt;&lt;u&gt;email&lt;/u&gt;&lt;/b&gt;&lt;/font&gt;" style="ellipse;whiteSpace=wrap;html=1;" parent="1" vertex="1"><mxGeometry x="-110" y="420" width="120" height="80" as="geometry"/></mxCell><mxCell id="82" value="&lt;font style=&quot;font-size: 18px&quot;&gt;&lt;u&gt;&lt;b&gt;password&lt;/b&gt;&lt;/u&gt;&lt;/font&gt;" style="ellipse;whiteSpace=wrap;html=1;" parent="1" vertex="1"><mxGeometry x="-110" y="560" width="120" height="80" as="geometry"/></mxCell><mxCell id="84" value="&lt;u&gt;&lt;font style=&quot;font-size: 18px&quot;&gt;ID&lt;/font&gt;&lt;/u&gt;" style="ellipse;whiteSpace=wrap;html=1;" parent="1" vertex="1"><mxGeometry x="260" y="420" width="120" height="80" as="geometry"/></mxCell><mxCell id="89" value="Buys" style="rhombus;whiteSpace=wrap;html=1;" parent="1" vertex="1"><mxGeometry x="350" y="270" width="80" height="80" as="geometry"/></mxCell><mxCell id="97" value="&lt;font style=&quot;font-size: 18px&quot;&gt;Total Cost&lt;/font&gt;" style="ellipse;whiteSpace=wrap;html=1;rounded=0;" vertex="1" parent="1"><mxGeometry x="760" y="-10" width="120" height="60" as="geometry"/></mxCell><mxCell id="117" style="edgeStyle=none;html=1;exitX=0.5;exitY=0;exitDx=0;exitDy=0;entryX=0.5;entryY=1;entryDx=0;entryDy=0;fontSize=18;" edge="1" parent="1" source="99" target="5"><mxGeometry relative="1" as="geometry"/></mxCell><mxCell id="99" value="&lt;font size=&quot;3&quot;&gt;searches&lt;/font&gt;" style="rhombus;whiteSpace=wrap;html=1;rounded=0;" vertex="1" parent="1"><mxGeometry x="85" y="210" width="90" height="80" as="geometry"/></mxCell><mxCell id="110" value="&lt;u&gt;&lt;b&gt;&lt;font style=&quot;font-size: 18px&quot;&gt;Username&lt;/font&gt;&lt;/b&gt;&lt;/u&gt;" style="ellipse;whiteSpace=wrap;html=1;rounded=0;" vertex="1" parent="1"><mxGeometry x="80" y="570" width="120" height="60" as="geometry"/></mxCell><mxCell id="114" value="&lt;font size=&quot;3&quot;&gt;Categories&lt;br&gt;&lt;/font&gt;" style="ellipse;whiteSpace=wrap;html=1;rounded=0;" vertex="1" parent="1"><mxGeometry x="-90" y="-140" width="120" height="60" as="geometry"/></mxCell><mxCell id="121" value="" style="edgeStyle=none;html=1;fontSize=18;" edge="1" parent="1" source="118" target="120"><mxGeometry relative="1" as="geometry"/></mxCell><mxCell id="118" value="&lt;font style=&quot;font-size: 18px&quot;&gt;Writes/Reads&lt;/font&gt;" style="rhombus;whiteSpace=wrap;html=1;rounded=0;" vertex="1" parent="1"><mxGeometry x="-320" y="190" width="80" height="80" as="geometry"/></mxCell><mxCell id="123" value="" style="edgeStyle=none;html=1;fontSize=18;" edge="1" parent="1" source="120" target="122"><mxGeometry relative="1" as="geometry"/></mxCell><mxCell id="126" value="" style="edgeStyle=none;html=1;fontSize=18;" edge="1" parent="1" source="120" target="125"><mxGeometry relative="1" as="geometry"/></mxCell><mxCell id="128" value="" style="edgeStyle=none;html=1;fontSize=18;" edge="1" parent="1" source="120" target="127"><mxGeometry relative="1" as="geometry"/></mxCell><mxCell id="130" value="" style="edgeStyle=none;html=1;fontSize=18;" edge="1" parent="1" source="120" target="129"><mxGeometry relative="1" as="geometry"/></mxCell><mxCell id="132" value="" style="edgeStyle=none;html=1;fontSize=14;" edge="1" parent="1" source="120" target="131"><mxGeometry relative="1" as="geometry"/></mxCell><mxCell id="120" value="&lt;font style=&quot;font-size: 18px&quot;&gt;Reviews&lt;/font&gt;" style="whiteSpace=wrap;html=1;rounded=0;" vertex="1" parent="1"><mxGeometry x="-370" y="-10" width="120" height="60" as="geometry"/></mxCell><mxCell id="124" style="edgeStyle=none;html=1;exitX=1;exitY=0.5;exitDx=0;exitDy=0;entryX=0;entryY=0.5;entryDx=0;entryDy=0;fontSize=18;" edge="1" parent="1" source="122" target="5"><mxGeometry relative="1" as="geometry"/></mxCell><mxCell id="122" value="&lt;font style=&quot;font-size: 18px&quot;&gt;about&lt;/font&gt;" style="rhombus;whiteSpace=wrap;html=1;rounded=0;" vertex="1" parent="1"><mxGeometry x="-150" y="-20" width="80" height="80" as="geometry"/></mxCell><mxCell id="125" value="&lt;b&gt;ID&lt;/b&gt;" style="ellipse;whiteSpace=wrap;html=1;rounded=0;" vertex="1" parent="1"><mxGeometry x="-370" y="-150" width="120" height="60" as="geometry"/></mxCell><mxCell id="127" value="&lt;font style=&quot;font-size: 14px&quot;&gt;&lt;b&gt;Producrt_ID&lt;/b&gt;&lt;/font&gt;" style="ellipse;whiteSpace=wrap;html=1;rounded=0;" vertex="1" parent="1"><mxGeometry x="-540" y="-140" width="120" height="60" as="geometry"/></mxCell><mxCell id="129" value="&lt;font style=&quot;font-size: 14px&quot;&gt;&lt;b&gt;Customer_ID&lt;/b&gt;&lt;/font&gt;" style="ellipse;whiteSpace=wrap;html=1;rounded=0;" vertex="1" parent="1"><mxGeometry x="-570" y="-10" width="120" height="60" as="geometry"/></mxCell><mxCell id="131" value="&lt;font style=&quot;font-size: 18px&quot;&gt;Review Text Content&lt;/font&gt;" style="ellipse;whiteSpace=wrap;html=1;rounded=0;" vertex="1" parent="1"><mxGeometry x="-500" y="100" width="120" height="60" as="geometry"/></mxCell><mxCell id="134" value="&lt;font style=&quot;font-size: 18px&quot;&gt;&lt;b&gt;Address&lt;/b&gt;&lt;/font&gt;" style="ellipse;whiteSpace=wrap;html=1;rounded=0;" vertex="1" parent="1"><mxGeometry x="260" y="570" width="120" height="60" as="geometry"/></mxCell></root></mxGraphModel></diagram></mxfile>